<svg xmlns="http://www.w3.org/2000/svg" viewBox="0 0 120 120" width="120" height="120">
  <defs>
    <linearGradient id="f" x1="0" y1="0" x2="1" y2="1"><stop offset="0" stop-color="#7dffd8"></stop><stop offset=".5" stop-color="#00e5a0"></stop><stop offset="1" stop-color="#00a376"></stop></linearGradient>
    <radialGradient id="s" cx=".5" cy=".4" r=".85"><stop offset="0" stop-color="#13211a"></stop><stop offset="1" stop-color="#060b09"></stop></radialGradient>
    <linearGradient id="p" x1="0" y1="0" x2=".3" y2="1"><stop offset="0" stop-color="#b6ffe6"></stop><stop offset="1" stop-color="#00e5a0"></stop></linearGradient>
    <linearGradient id="g" x1="0" y1="0" x2="0" y2="1"><stop offset="0" stop-color="#ffffff" stop-opacity=".45"></stop><stop offset=".5" stop-color="#ffffff" stop-opacity="0"></stop></linearGradient>
  </defs>
  <path d="M30 0 L100 0 A20 20 0 0 1 120 20 L120 90 L90 120 L20 120 A20 20 0 0 1 0 100 L0 30 Z" fill="url(#f)"></path>
  <path d="M30 0 L100 0 A20 20 0 0 1 120 20 L120 90 L90 120 L20 120 A20 20 0 0 1 0 100 L0 30 Z" fill="url(#g)" opacity=".5"></path>
  <path d="M37.5 18 L90 18 A12 12 0 0 1 102 30 L102 82.5 L82.5 102 L30 102 A12 12 0 0 1 18 90 L18 37.5 Z" fill="url(#s)"></path>
  <path d="M56 42 L34 60 L56 78 Z M78 42 L56 60 L78 78 Z" fill="url(#p)"></path>
</svg>